<?xml version="1.0" encoding="UTF-8"?>
<svg id="logosandtypes_com" data-name="logosandtypes com" xmlns="http://www.w3.org/2000/svg" viewBox="0 0 150 150">
  <defs>
    <style>
      .cls-1 {
        fill: none;
      }
    </style>
  </defs>
  <g id="Layer_2" data-name="Layer 2">
    <path id="Layer_3" data-name="Layer 3" class="cls-1" d="M0,0H150V150H0V0Z"/>
  </g>
  <path d="M113.8,39.85v19.67h-17.09v26.61c0,3.28-1.42,6.13-5.57,6.13s-5.59-2.85-5.59-6.13v-26.61h-17.51v26.61c0,3.28-1.42,6.13-5.57,6.13s-5.57-2.85-5.57-6.13v-26.61h-17.86c0-20.54,.12-14.1,.12-19.72,0-21.55,18.95-31.94,37.28-31.94,18.29,.02,37.37,10.26,37.37,31.98Z"/>
  <path d="M91.64,112.5c-5.55,0-11.21-3.03-15.05-7.39h-.1c-3.84,4.36-9.5,7.39-15.05,7.39-6.87,0-13.36-2.68-17.55-7.39h-4.87c0,20.64,16.74,37.39,37.39,37.39s37.39-16.74,37.39-37.39h-4.58c-4.21,4.71-10.69,7.39-17.57,7.39h0Z"/>
</svg>